<svg xmlns="http://www.w3.org/2000/svg" xmlns:xlink="http://www.w3.org/1999/xlink" width="166" zoomAndPan="magnify" viewBox="0 0 124.5 30.000001" height="40" preserveAspectRatio="xMidYMid meet" version="1.0"><defs><g/><clipPath id="4730293d16"><path d="M 1.765625 0 L 122.25 0 L 122.25 29.03125 L 1.765625 29.03125 Z M 1.765625 0 " clip-rule="nonzero"/></clipPath><clipPath id="781487c262"><path d="M 22.398438 4.960938 L 41.167969 4.960938 L 41.167969 22.886719 L 22.398438 22.886719 Z M 22.398438 4.960938 " clip-rule="nonzero"/></clipPath><clipPath id="fd0fad4136"><path d="M 23.800781 18.125 C 26.5625 22.546875 32.605469 21.394531 32.667969 21.378906 L 32.683594 21.378906 L 32.695312 21.375 C 36.28125 20.820312 38.003906 17.363281 38.003906 17.371094 L 38.003906 17.363281 L 38.007812 17.359375 C 40.4375 12.632812 39.769531 8.027344 39.5625 6.609375 C 39.558594 6.566406 39.550781 6.527344 39.546875 6.492188 L 40.179688 6.398438 L 39.546875 6.492188 C 39.519531 6.3125 39.5 6.214844 39.5 6.214844 L 40.132812 6.097656 L 40.511719 6.617188 L 40.386719 6.707031 L 40.011719 6.1875 L 40.386719 6.707031 L 24.371094 18.402344 L 23.996094 17.886719 L 24.390625 18.390625 L 23.652344 18.96875 L 23.253906 18.464844 L 23.800781 18.125 M 22.710938 18.804688 L 22.40625 18.3125 L 22.859375 17.957031 L 23.601562 17.378906 L 23.605469 17.375 L 23.613281 17.371094 L 39.628906 5.667969 L 39.753906 5.578125 L 40.578125 4.976562 L 40.765625 5.980469 C 40.769531 5.996094 40.789062 6.109375 40.816406 6.308594 C 40.820312 6.34375 40.828125 6.378906 40.832031 6.421875 C 41.042969 7.882812 41.773438 12.839844 39.148438 17.945312 L 38.578125 17.652344 L 39.152344 17.9375 C 39.148438 17.9375 37.175781 21.980469 32.890625 22.644531 L 32.792969 22.007812 L 32.917969 22.636719 C 32.980469 22.625 25.988281 24.054688 22.710938 18.800781 Z M 22.710938 18.804688 " clip-rule="nonzero"/></clipPath><clipPath id="7bfa1fd38b"><path d="M 0.398438 0.960938 L 19.167969 0.960938 L 19.167969 18.886719 L 0.398438 18.886719 Z M 0.398438 0.960938 " clip-rule="nonzero"/></clipPath><clipPath id="e72864ca7c"><path d="M 1.800781 14.125 C 4.5625 18.546875 10.605469 17.394531 10.667969 17.378906 L 10.683594 17.378906 L 10.695312 17.375 C 14.28125 16.820312 16.003906 13.363281 16.003906 13.371094 L 16.003906 13.363281 L 16.007812 13.359375 C 18.4375 8.632812 17.769531 4.027344 17.5625 2.609375 C 17.558594 2.566406 17.550781 2.527344 17.546875 2.492188 L 18.179688 2.398438 L 17.546875 2.492188 C 17.519531 2.3125 17.5 2.214844 17.5 2.214844 L 18.132812 2.097656 L 18.511719 2.617188 L 18.386719 2.707031 L 18.011719 2.1875 L 18.386719 2.707031 L 2.371094 14.402344 L 1.996094 13.886719 L 2.390625 14.390625 L 1.652344 14.96875 L 1.253906 14.464844 L 1.800781 14.125 M 0.710938 14.804688 L 0.40625 14.3125 L 0.859375 13.957031 L 1.601562 13.378906 L 1.605469 13.375 L 1.613281 13.371094 L 17.628906 1.667969 L 17.753906 1.578125 L 18.578125 0.976562 L 18.765625 1.980469 C 18.769531 1.996094 18.789062 2.109375 18.816406 2.308594 C 18.820312 2.34375 18.828125 2.378906 18.832031 2.421875 C 19.042969 3.882812 19.773438 8.839844 17.148438 13.945312 L 16.578125 13.652344 L 17.152344 13.9375 C 17.148438 13.9375 15.175781 17.980469 10.890625 18.644531 L 10.792969 18.007812 L 10.917969 18.636719 C 10.980469 18.625 3.988281 20.054688 0.710938 14.800781 Z M 0.710938 14.804688 " clip-rule="nonzero"/></clipPath><clipPath id="7cd054c5e4"><rect x="0" width="20" y="0" height="19"/></clipPath><clipPath id="d1d12e0a2e"><path d="M 26.453125 10.796875 L 34.234375 10.796875 L 34.234375 17.984375 L 26.453125 17.984375 Z M 26.453125 10.796875 " clip-rule="nonzero"/></clipPath><clipPath id="123e831df7"><path d="M 26.472656 16.332031 C 27.695312 18.402344 30.734375 17.917969 30.734375 17.917969 C 32.390625 17.695312 33.320312 15.96875 33.320312 15.96875 C 34.734375 13.5625 34.015625 10.804688 34.015625 10.804688 L 26.804688 16.074219 Z M 26.472656 16.332031 " clip-rule="nonzero"/></clipPath><clipPath id="6f7150dfdc"><path d="M 0.453125 0.796875 L 8.234375 0.796875 L 8.234375 7.984375 L 0.453125 7.984375 Z M 0.453125 0.796875 " clip-rule="nonzero"/></clipPath><clipPath id="7abc9c6ebf"><path d="M 0.472656 6.332031 C 1.695312 8.402344 4.734375 7.917969 4.734375 7.917969 C 6.390625 7.695312 7.320312 5.96875 7.320312 5.96875 C 8.734375 3.5625 8.015625 0.804688 8.015625 0.804688 L 0.804688 6.074219 Z M 0.472656 6.332031 " clip-rule="nonzero"/></clipPath><clipPath id="706ae6607d"><rect x="0" width="9" y="0" height="8"/></clipPath><clipPath id="385fb5996b"><path d="M 3.710938 4.960938 L 22.480469 4.960938 L 22.480469 22.886719 L 3.710938 22.886719 Z M 3.710938 4.960938 " clip-rule="nonzero"/></clipPath><clipPath id="7e43e4d6c6"><path d="M 22.113281 18.804688 C 18.855469 24.019531 11.933594 22.644531 11.910156 22.640625 C 11.910156 22.640625 11.90625 22.640625 11.90625 22.640625 L 12.03125 22.011719 L 11.933594 22.644531 C 7.648438 21.980469 5.671875 17.9375 5.667969 17.9375 L 6.246094 17.652344 L 5.675781 17.945312 C 3.050781 12.839844 3.777344 7.882812 3.988281 6.421875 C 3.996094 6.378906 4 6.339844 4.003906 6.308594 C 4.035156 6.101562 4.054688 5.988281 4.054688 5.980469 L 4.246094 4.976562 L 5.066406 5.578125 L 5.191406 5.667969 L 21.210938 17.367188 L 21.222656 17.378906 L 21.964844 17.953125 L 22.417969 18.3125 L 22.113281 18.800781 M 21.023438 18.125 L 21.570312 18.464844 L 21.171875 18.96875 L 20.433594 18.390625 L 20.828125 17.886719 L 20.453125 18.402344 L 4.4375 6.707031 L 4.8125 6.1875 L 4.4375 6.707031 L 4.3125 6.617188 L 4.691406 6.097656 L 5.324219 6.214844 C 5.324219 6.207031 5.304688 6.304688 5.277344 6.492188 L 4.644531 6.398438 L 5.277344 6.492188 C 5.273438 6.527344 5.269531 6.566406 5.261719 6.609375 C 5.054688 8.027344 4.386719 12.632812 6.816406 17.359375 L 6.820312 17.363281 L 6.820312 17.371094 C 6.820312 17.367188 8.542969 20.820312 12.128906 21.375 L 12.140625 21.378906 L 12.15625 21.378906 C 12.300781 21.410156 18.28125 22.515625 21.027344 18.125 Z M 21.023438 18.125 " clip-rule="nonzero"/></clipPath><clipPath id="2e5596c875"><path d="M 0.710938 0.960938 L 19.4375 0.960938 L 19.4375 18.886719 L 0.710938 18.886719 Z M 0.710938 0.960938 " clip-rule="nonzero"/></clipPath><clipPath id="3d98467500"><path d="M 19.113281 14.804688 C 15.855469 20.019531 8.933594 18.644531 8.910156 18.640625 C 8.910156 18.640625 8.90625 18.640625 8.90625 18.640625 L 9.03125 18.011719 L 8.933594 18.644531 C 4.648438 17.980469 2.671875 13.9375 2.667969 13.9375 L 3.246094 13.652344 L 2.675781 13.945312 C 0.0507812 8.839844 0.777344 3.882812 0.988281 2.421875 C 0.996094 2.378906 1 2.339844 1.003906 2.308594 C 1.035156 2.101562 1.054688 1.988281 1.054688 1.980469 L 1.246094 0.976562 L 2.066406 1.578125 L 2.191406 1.667969 L 18.210938 13.367188 L 18.222656 13.378906 L 18.964844 13.953125 L 19.417969 14.3125 L 19.113281 14.800781 M 18.023438 14.125 L 18.570312 14.464844 L 18.171875 14.96875 L 17.433594 14.390625 L 17.828125 13.886719 L 17.453125 14.402344 L 1.4375 2.707031 L 1.8125 2.1875 L 1.4375 2.707031 L 1.3125 2.617188 L 1.691406 2.097656 L 2.324219 2.214844 C 2.324219 2.207031 2.304688 2.304688 2.277344 2.492188 L 1.644531 2.398438 L 2.277344 2.492188 C 2.273438 2.527344 2.269531 2.566406 2.261719 2.609375 C 2.054688 4.027344 1.386719 8.632812 3.816406 13.359375 L 3.820312 13.363281 L 3.820312 13.371094 C 3.820312 13.367188 5.542969 16.820312 9.128906 17.375 L 9.140625 17.378906 L 9.15625 17.378906 C 9.300781 17.410156 15.28125 18.515625 18.027344 14.125 Z M 18.023438 14.125 " clip-rule="nonzero"/></clipPath><clipPath id="074dddd9bc"><rect x="0" width="20" y="0" height="19"/></clipPath><clipPath id="91d920400f"><path d="M 10.558594 10.796875 L 18.421875 10.796875 L 18.421875 17.984375 L 10.558594 17.984375 Z M 10.558594 10.796875 " clip-rule="nonzero"/></clipPath><clipPath id="f277149831"><path d="M 18.351562 16.332031 C 17.128906 18.402344 14.089844 17.917969 14.089844 17.917969 C 12.433594 17.695312 11.503906 15.96875 11.503906 15.96875 C 10.089844 13.5625 10.808594 10.804688 10.808594 10.804688 L 18.019531 16.074219 Z M 18.351562 16.332031 " clip-rule="nonzero"/></clipPath><clipPath id="82b0dd80e3"><path d="M 0.558594 0.796875 L 8.421875 0.796875 L 8.421875 7.984375 L 0.558594 7.984375 Z M 0.558594 0.796875 " clip-rule="nonzero"/></clipPath><clipPath id="bc55e478de"><path d="M 8.351562 6.332031 C 7.128906 8.402344 4.089844 7.917969 4.089844 7.917969 C 2.433594 7.695312 1.503906 5.96875 1.503906 5.96875 C 0.0898438 3.5625 0.808594 0.804688 0.808594 0.804688 L 8.019531 6.074219 Z M 8.351562 6.332031 " clip-rule="nonzero"/></clipPath><clipPath id="d2f83addf6"><rect x="0" width="9" y="0" height="8"/></clipPath><clipPath id="562c8615a4"><path d="M 61 4 L 76.84375 4 L 76.84375 19 L 61 19 Z M 61 4 " clip-rule="nonzero"/></clipPath><clipPath id="65370d509b"><rect x="0" width="77" y="0" height="23"/></clipPath></defs><g clip-path="url(#4730293d16)"><path fill="#ffffff" d="M 1.765625 0 L 122.25 0 L 122.25 29.03125 L 1.765625 29.03125 Z M 1.765625 0 " fill-opacity="1" fill-rule="nonzero"/><path fill="#ffffff" d="M 1.765625 0 L 122.25 0 L 122.25 29.03125 L 1.765625 29.03125 Z M 1.765625 0 " fill-opacity="1" fill-rule="nonzero"/></g><g clip-path="url(#781487c262)"><g clip-path="url(#fd0fad4136)"><g transform="matrix(1, 0, 0, 1, 22, 4)"><g clip-path="url(#7cd054c5e4)"><g clip-path="url(#7bfa1fd38b)"><g clip-path="url(#e72864ca7c)"><rect x="-49.39" width="179.28" fill="#3534ff" height="43.200001" y="-10.6" fill-opacity="1"/></g></g></g></g></g></g><g clip-path="url(#d1d12e0a2e)"><g clip-path="url(#123e831df7)"><g transform="matrix(1, 0, 0, 1, 26, 10)"><g clip-path="url(#706ae6607d)"><g clip-path="url(#6f7150dfdc)"><g clip-path="url(#7abc9c6ebf)"><rect x="-53.39" width="179.28" fill="#3534ff" height="43.200001" y="-16.6" fill-opacity="1"/></g></g></g></g></g></g><g clip-path="url(#385fb5996b)"><g clip-path="url(#7e43e4d6c6)"><g transform="matrix(1, 0, 0, 1, 3, 4)"><g clip-path="url(#074dddd9bc)"><g clip-path="url(#2e5596c875)"><g clip-path="url(#3d98467500)"><rect x="-30.39" width="179.28" fill="#3534ff" height="43.200001" y="-10.6" fill-opacity="1"/></g></g></g></g></g></g><g clip-path="url(#91d920400f)"><g clip-path="url(#f277149831)"><g transform="matrix(1, 0, 0, 1, 10, 10)"><g clip-path="url(#d2f83addf6)"><g clip-path="url(#82b0dd80e3)"><g clip-path="url(#bc55e478de)"><rect x="-37.39" width="179.28" fill="#3534ff" height="43.200001" y="-16.6" fill-opacity="1"/></g></g></g></g></g></g><g transform="matrix(1, 0, 0, 1, 45, 3)"><g clip-path="url(#65370d509b)"><g fill="#262626" fill-opacity="1"><g transform="translate(0.617503, 18.377134)"><g><path d="M 5.5625 0.15625 C 4.550781 0.15625 3.582031 -0.0078125 2.65625 -0.34375 C 1.738281 -0.675781 1.015625 -1.109375 0.484375 -1.640625 L 1.171875 -3.109375 C 1.679688 -2.628906 2.332031 -2.238281 3.125 -1.9375 C 3.914062 -1.632812 4.726562 -1.484375 5.5625 -1.484375 C 6.65625 -1.484375 7.472656 -1.679688 8.015625 -2.078125 C 8.566406 -2.484375 8.84375 -3.015625 8.84375 -3.671875 C 8.84375 -4.160156 8.691406 -4.554688 8.390625 -4.859375 C 8.097656 -5.171875 7.722656 -5.410156 7.265625 -5.578125 C 6.816406 -5.742188 6.195312 -5.925781 5.40625 -6.125 C 4.425781 -6.382812 3.628906 -6.640625 3.015625 -6.890625 C 2.398438 -7.140625 1.875 -7.523438 1.4375 -8.046875 C 1.007812 -8.566406 0.796875 -9.269531 0.796875 -10.15625 C 0.796875 -10.894531 0.984375 -11.566406 1.359375 -12.171875 C 1.734375 -12.773438 2.300781 -13.253906 3.0625 -13.609375 C 3.832031 -13.960938 4.769531 -14.140625 5.875 -14.140625 C 6.664062 -14.140625 7.4375 -14.023438 8.1875 -13.796875 C 8.945312 -13.578125 9.601562 -13.269531 10.15625 -12.875 L 9.546875 -11.359375 C 8.984375 -11.742188 8.378906 -12.03125 7.734375 -12.21875 C 7.097656 -12.414062 6.476562 -12.515625 5.875 -12.515625 C 4.800781 -12.515625 4 -12.300781 3.46875 -11.875 C 2.9375 -11.445312 2.671875 -10.898438 2.671875 -10.234375 C 2.671875 -9.742188 2.820312 -9.34375 3.125 -9.03125 C 3.4375 -8.726562 3.816406 -8.492188 4.265625 -8.328125 C 4.722656 -8.160156 5.34375 -7.976562 6.125 -7.78125 C 7.113281 -7.53125 7.910156 -7.28125 8.515625 -7.03125 C 9.117188 -6.789062 9.632812 -6.410156 10.0625 -5.890625 C 10.5 -5.367188 10.71875 -4.675781 10.71875 -3.8125 C 10.71875 -3.082031 10.523438 -2.414062 10.140625 -1.8125 C 9.753906 -1.21875 9.175781 -0.738281 8.40625 -0.375 C 7.632812 -0.0195312 6.6875 0.15625 5.5625 0.15625 Z M 5.5625 0.15625 "/></g></g></g><g fill="#262626" fill-opacity="1"><g transform="translate(11.39481, 18.377134)"><g><path d="M 6.765625 0 L 4.890625 0 L 4.890625 -4.890625 L -0.375 -13.96875 L 1.640625 -13.96875 L 5.90625 -6.625 L 10.1875 -13.96875 L 12.0625 -13.96875 L 6.765625 -4.875 Z M 6.765625 0 "/></g></g></g><g fill="#262626" fill-opacity="1"><g transform="translate(22.651109, 18.377134)"><g><path d="M 5.5625 0.15625 C 4.550781 0.15625 3.582031 -0.0078125 2.65625 -0.34375 C 1.738281 -0.675781 1.015625 -1.109375 0.484375 -1.640625 L 1.171875 -3.109375 C 1.679688 -2.628906 2.332031 -2.238281 3.125 -1.9375 C 3.914062 -1.632812 4.726562 -1.484375 5.5625 -1.484375 C 6.65625 -1.484375 7.472656 -1.679688 8.015625 -2.078125 C 8.566406 -2.484375 8.84375 -3.015625 8.84375 -3.671875 C 8.84375 -4.160156 8.691406 -4.554688 8.390625 -4.859375 C 8.097656 -5.171875 7.722656 -5.410156 7.265625 -5.578125 C 6.816406 -5.742188 6.195312 -5.925781 5.40625 -6.125 C 4.425781 -6.382812 3.628906 -6.640625 3.015625 -6.890625 C 2.398438 -7.140625 1.875 -7.523438 1.4375 -8.046875 C 1.007812 -8.566406 0.796875 -9.269531 0.796875 -10.15625 C 0.796875 -10.894531 0.984375 -11.566406 1.359375 -12.171875 C 1.734375 -12.773438 2.300781 -13.253906 3.0625 -13.609375 C 3.832031 -13.960938 4.769531 -14.140625 5.875 -14.140625 C 6.664062 -14.140625 7.4375 -14.023438 8.1875 -13.796875 C 8.945312 -13.578125 9.601562 -13.269531 10.15625 -12.875 L 9.546875 -11.359375 C 8.984375 -11.742188 8.378906 -12.03125 7.734375 -12.21875 C 7.097656 -12.414062 6.476562 -12.515625 5.875 -12.515625 C 4.800781 -12.515625 4 -12.300781 3.46875 -11.875 C 2.9375 -11.445312 2.671875 -10.898438 2.671875 -10.234375 C 2.671875 -9.742188 2.820312 -9.34375 3.125 -9.03125 C 3.4375 -8.726562 3.816406 -8.492188 4.265625 -8.328125 C 4.722656 -8.160156 5.34375 -7.976562 6.125 -7.78125 C 7.113281 -7.53125 7.910156 -7.28125 8.515625 -7.03125 C 9.117188 -6.789062 9.632812 -6.410156 10.0625 -5.890625 C 10.5 -5.367188 10.71875 -4.675781 10.71875 -3.8125 C 10.71875 -3.082031 10.523438 -2.414062 10.140625 -1.8125 C 9.753906 -1.21875 9.175781 -0.738281 8.40625 -0.375 C 7.632812 -0.0195312 6.6875 0.15625 5.5625 0.15625 Z M 5.5625 0.15625 "/></g></g></g><g fill="#262626" fill-opacity="1"><g transform="translate(33.82759, 18.377134)"><g><path d="M 7.671875 0.15625 C 6.335938 0.15625 5.128906 -0.148438 4.046875 -0.765625 C 2.972656 -1.390625 2.128906 -2.242188 1.515625 -3.328125 C 0.898438 -4.421875 0.59375 -5.640625 0.59375 -6.984375 C 0.59375 -8.347656 0.898438 -9.570312 1.515625 -10.65625 C 2.128906 -11.738281 2.972656 -12.585938 4.046875 -13.203125 C 5.128906 -13.828125 6.335938 -14.140625 7.671875 -14.140625 C 8.992188 -14.140625 10.191406 -13.828125 11.265625 -13.203125 C 12.347656 -12.585938 13.195312 -11.738281 13.8125 -10.65625 C 14.4375 -9.570312 14.75 -8.347656 14.75 -6.984375 C 14.75 -5.628906 14.4375 -4.410156 13.8125 -3.328125 C 13.195312 -2.242188 12.347656 -1.390625 11.265625 -0.765625 C 10.191406 -0.148438 8.992188 0.15625 7.671875 0.15625 Z M 7.671875 -1.578125 C 8.648438 -1.578125 9.53125 -1.804688 10.3125 -2.265625 C 11.101562 -2.734375 11.722656 -3.378906 12.171875 -4.203125 C 12.628906 -5.023438 12.859375 -5.953125 12.859375 -6.984375 C 12.859375 -8.023438 12.628906 -8.957031 12.171875 -9.78125 C 11.722656 -10.601562 11.101562 -11.25 10.3125 -11.71875 C 9.53125 -12.1875 8.648438 -12.421875 7.671875 -12.421875 C 6.691406 -12.421875 5.8125 -12.1875 5.03125 -11.71875 C 4.25 -11.25 3.628906 -10.601562 3.171875 -9.78125 C 2.722656 -8.957031 2.5 -8.023438 2.5 -6.984375 C 2.5 -5.953125 2.722656 -5.023438 3.171875 -4.203125 C 3.628906 -3.378906 4.25 -2.734375 5.03125 -2.265625 C 5.8125 -1.804688 6.691406 -1.578125 7.671875 -1.578125 Z M 7.671875 -1.578125 "/></g></g></g><g fill="#262626" fill-opacity="1"><g transform="translate(48.776118, 18.377134)"><g><path d="M 7.359375 0 L 5.53125 0 L -0.3125 -13.96875 L 1.71875 -13.96875 L 6.53125 -2.5 L 11.34375 -13.96875 L 13.234375 -13.96875 Z M 7.359375 0 "/></g></g></g><g clip-path="url(#562c8615a4)"><g fill="#262626" fill-opacity="1"><g transform="translate(61.269816, 18.377134)"><g><path d="M 7.671875 0.15625 C 6.335938 0.15625 5.128906 -0.148438 4.046875 -0.765625 C 2.972656 -1.390625 2.128906 -2.242188 1.515625 -3.328125 C 0.898438 -4.421875 0.59375 -5.640625 0.59375 -6.984375 C 0.59375 -8.347656 0.898438 -9.570312 1.515625 -10.65625 C 2.128906 -11.738281 2.972656 -12.585938 4.046875 -13.203125 C 5.128906 -13.828125 6.335938 -14.140625 7.671875 -14.140625 C 8.992188 -14.140625 10.191406 -13.828125 11.265625 -13.203125 C 12.347656 -12.585938 13.195312 -11.738281 13.8125 -10.65625 C 14.4375 -9.570312 14.75 -8.347656 14.75 -6.984375 C 14.75 -5.628906 14.4375 -4.410156 13.8125 -3.328125 C 13.195312 -2.242188 12.347656 -1.390625 11.265625 -0.765625 C 10.191406 -0.148438 8.992188 0.15625 7.671875 0.15625 Z M 7.671875 -1.578125 C 8.648438 -1.578125 9.53125 -1.804688 10.3125 -2.265625 C 11.101562 -2.734375 11.722656 -3.378906 12.171875 -4.203125 C 12.628906 -5.023438 12.859375 -5.953125 12.859375 -6.984375 C 12.859375 -8.023438 12.628906 -8.957031 12.171875 -9.78125 C 11.722656 -10.601562 11.101562 -11.25 10.3125 -11.71875 C 9.53125 -12.1875 8.648438 -12.421875 7.671875 -12.421875 C 6.691406 -12.421875 5.8125 -12.1875 5.03125 -11.71875 C 4.25 -11.25 3.628906 -10.601562 3.171875 -9.78125 C 2.722656 -8.957031 2.5 -8.023438 2.5 -6.984375 C 2.5 -5.953125 2.722656 -5.023438 3.171875 -4.203125 C 3.628906 -3.378906 4.25 -2.734375 5.03125 -2.265625 C 5.8125 -1.804688 6.691406 -1.578125 7.671875 -1.578125 Z M 7.671875 -1.578125 "/></g></g></g></g></g></g></svg>